<?xml version="1.0" encoding="UTF-8"?>
<svg width="540" fill="#b4b4b4" height="172" version="1.1" viewBox="0 0 142.87 45.508" xmlns="http://www.w3.org/2000/svg">
  <g transform="translate(-37.935 -55.416)">
    <path
      d="m43.226 60.707v5.9656h8.4962a11.483 11.497 0 0 1 11.483 11.497 11.483 11.497 0 0 1-11.483 11.497h-8.4962v5.9656h8.4962a17.441 17.462 0 0 0 17.441-17.463 17.441 17.462 0 0 0-17.441-17.462zm31.607 0v34.925h6.7104v-34.925zm11.348 0v6.0136h10.904v28.911h6.7104v-28.911h10.904v-6.0136zm33.075 0v34.925h26.205v-5.8907h-19.495v-8.6264h16.95v-5.8907h-16.95v-8.6264h18.917v-5.8907zm47.765 0a17.441 17.462 0 0 0-17.441 17.462 17.441 17.462 0 0 0 17.441 17.463h8.4962v-5.9656h-8.4962a11.483 11.497 0 0 1-11.483-11.497 11.483 11.497 0 0 1 11.483-11.497h8.4962v-5.9656zm-123.8 8.3691v2.6355h7.4045v-2.6355zm0 5.2422v2.6355h7.4045v-2.6355zm0 5.2422v2.6355h7.4045v-2.6355zm0 5.2422v2.6355h7.4045v-2.6355z"
      style="paint-order:markers stroke fill"/>
  </g>
</svg>
