<?xml version="1.0" encoding="UTF-8" standalone="no"?>
<svg
   xmlns="http://www.w3.org/2000/svg"
   id="svg469"
   version="1.1"
   viewBox="0 0 55.189983 15.875"
   height="60"
   width="208.59206">
  <g
     transform="translate(-107.95,-72.368729)"
     id="g68">
    <rect
       style="opacity:1;vector-effect:none;fill:#13acda;fill-opacity:1;stroke:none;stroke-width:0.79374999;stroke-linecap:butt;stroke-linejoin:round;stroke-miterlimit:4;stroke-dasharray:2.38124997, 2.38124997;stroke-dashoffset:0;stroke-opacity:1"
       id="rect10"
       width="15.875"
       height="15.875"
       x="107.95"
       y="72.368729"
       rx="1.0583333"
       ry="1.0583333" />
    <path
       style="opacity:1;vector-effect:none;fill:#ffffff;fill-opacity:1;stroke:none;stroke-width:0.79374999;stroke-linecap:butt;stroke-linejoin:round;stroke-miterlimit:4;stroke-dasharray:2.38124984, 2.38124984;stroke-dashoffset:0;stroke-opacity:1"
       d="m 111.73684,75.014566 v 1.641242 h 3.06596 c 1.98864,0 3.65043,1.331333 3.65043,3.650425 0,2.319091 -1.71168,3.650305 -3.65043,3.650424 h -3.06596 v 1.641242 h 3.06596 c 2.9225,-5e-6 5.29167,-2.369163 5.29167,-5.291666 0,-2.922506 -2.36916,-5.291662 -5.29167,-5.291667 z m 0,2.322338 v 0.952397 h 2.06137 v -0.952397 z m 0,1.65468 v 0.952397 h 2.06137 v -0.952397 z m 0,1.654162 v 0.952397 h 2.06137 v -0.952397 z m 0,1.65468 v 0.952397 h 2.06137 v -0.952397 z"
       id="path57" />
  </g>
  <path
     id="path505"
     d="m 51.427932,1.4528054 c -0.62711,0 -1.20842,0.108678 -1.74356,0.326078 -0.52678,0.2174 -0.98221,0.526756 -1.36684,0.928111 -0.37627,0.401351 -0.67351,0.882068 -0.89091,1.442288 -0.2174,0.560226 -0.32607,1.182974 -0.32607,1.86862 0,0.685639 0.10464,1.308394 0.31367,1.86862 0.2174,0.560218 0.51867,1.041453 0.90331,1.442805 0.38463,0.401359 0.84006,0.7107096 1.36684,0.9281096 0.53514,0.217398 1.11645,0.326078 1.74356,0.326078 0.95322,0 1.78525,-0.171355 2.49597,-0.514181 l -0.1757,-1.5301406 c -0.82779,0.334463 -1.60118,0.501264 -2.32027,0.501264 -0.41807,0 -0.78607,-0.07076 -1.10381,-0.212907 -0.31774,-0.150509 -0.58513,-0.355743 -0.80253,-0.61495 -0.2174,-0.267568 -0.38472,-0.584999 -0.50178,-0.952913 -0.1087,-0.376267 -0.1633,-0.790265 -0.1633,-1.241785 0,-0.451527 0.0546,-0.860959 0.1633,-1.228865 0.11706,-0.376267 0.28438,-0.694219 0.50178,-0.953431 0.2174,-0.267566 0.48479,-0.472287 0.80253,-0.614434 0.31774,-0.150506 0.68574,-0.225825 1.10381,-0.225825 0.71909,0 1.49248,0.167317 2.32027,0.501777 l 0.1757,-1.530138 c -0.71072,-0.342821 -1.54275,-0.514181 -2.49597,-0.514181 z m -32.260047,0.175183 v 8.7798246 h 3.286107 c 0.63547,0 1.21678,-0.1006 1.74356,-0.301273 0.53514,-0.2090386 0.99057,-0.5017156 1.36684,-0.8779826 0.38463,-0.376272 0.68187,-0.835742 0.8909,-1.379243 0.2174,-0.5435 0.32608,-1.154131 0.32608,-1.831412 0,-0.677288 -0.10868,-1.283353 -0.32608,-1.818494 -0.20903,-0.543499 -0.50627,-1.003493 -0.8909,-1.37976 -0.37627,-0.384636 -0.8317,-0.67731 -1.36684,-0.877983 -0.52678,-0.209039 -1.10809,-0.313677 -1.74356,-0.313677 z m 9.521897,0 v 8.7798246 h 1.60507 V 1.6279884 Z m 3.23236,0 v 1.555462 h 2.48306 v 7.2243626 h 1.60558 V 3.1834504 h 2.48357 v -1.555462 z m 8.21707,0 v 8.7798246 h 5.74436 V 8.8523544 h -4.10156 v -2.244825 h 3.0856 v -1.555459 h -3.0856 v -1.86862 h 3.97598 v -1.555462 z m -19.36574,1.543058 h 1.68052 c 0.83615,0 1.47154,0.250717 1.90634,0.752409 0.44316,0.493334 0.66508,1.1914 0.66508,2.094447 0,0.903039 -0.22192,1.605672 -0.66508,2.107364 -0.4348,0.493334 -1.07019,0.740008 -1.90634,0.740008 h -1.68052 z"
     style="font-style:normal;font-variant:normal;font-weight:bold;font-stretch:normal;font-size:12.54230785px;line-height:1.10000002;font-family:Cabin;-inkscape-font-specification:'Cabin, Bold';font-variant-ligatures:normal;font-variant-position:normal;font-variant-caps:normal;font-variant-numeric:normal;font-variant-alternates:normal;font-feature-settings:normal;text-indent:0;text-align:start;text-decoration:none;text-decoration-line:none;text-decoration-style:solid;text-decoration-color:#000000;letter-spacing:0.48239854px;word-spacing:0px;text-transform:none;writing-mode:lr-tb;direction:ltr;text-orientation:mixed;dominant-baseline:auto;baseline-shift:baseline;text-anchor:start;white-space:normal;shape-padding:0;fill:#ffffff;fill-opacity:1;stroke:none;stroke-width:0.26458332;stroke-linecap:butt;stroke-linejoin:miter;stroke-miterlimit:4;stroke-dasharray:none;stroke-dashoffset:0;stroke-opacity:1" />
  <path
     id="path522"
     d="m 27.390122,12.128639 c -0.13123,0 -0.25218,0.02421 -0.36225,0.07286 -0.10795,0.04869 -0.20074,0.119774 -0.27905,0.212908 -0.0783,0.09101 -0.14003,0.203059 -0.18449,0.336412 -0.0423,0.131233 -0.063,0.280305 -0.063,0.447519 0,0.167219 0.0207,0.31877 0.063,0.454237 0.0444,0.133344 0.10617,0.247361 0.18449,0.342614 0.0783,0.09313 0.1711,0.165206 0.27905,0.216006 0.11007,0.0508 0.23102,0.07648 0.36225,0.07648 0.13124,0 0.25069,-0.02569 0.35864,-0.07648 0.11006,-0.0508 0.20435,-0.122873 0.28266,-0.216006 0.0804,-0.09525 0.14164,-0.20927 0.18397,-0.342614 0.0444,-0.135467 0.0667,-0.287018 0.0667,-0.454237 0,-0.1651 -0.0222,-0.313185 -0.0667,-0.444418 -0.0423,-0.133347 -0.10353,-0.245393 -0.18397,-0.336413 -0.0783,-0.09315 -0.1726,-0.16424 -0.28266,-0.212907 -0.10795,-0.0508 -0.2274,-0.07597 -0.35864,-0.07597 z m 14.83424,0 c -0.13335,0 -0.25725,0.02516 -0.37155,0.07597 -0.11219,0.04868 -0.20943,0.119774 -0.29198,0.212907 -0.0825,0.09313 -0.14722,0.206161 -0.19378,0.339514 -0.0466,0.133347 -0.0698,0.283916 -0.0698,0.451136 0,0.169333 0.0222,0.321352 0.0667,0.456819 0.0466,0.133347 0.10973,0.246898 0.19017,0.340031 0.0825,0.09103 0.1788,0.160624 0.28887,0.209289 0.11218,0.04867 0.23412,0.07338 0.36535,0.07338 0.13335,0 0.25182,-0.02665 0.35553,-0.07958 0.10372,-0.05291 0.19702,-0.126957 0.27957,-0.22221 l -0.14934,-0.161748 c -0.0677,0.0741 -0.13981,0.13085 -0.21601,0.171051 -0.0741,0.0402 -0.16195,0.06046 -0.26355,0.06046 -0.0995,0 -0.18932,-0.02027 -0.26975,-0.06046 -0.0783,-0.04022 -0.14496,-0.09697 -0.19999,-0.171051 -0.055,-0.07409 -0.0985,-0.163451 -0.13022,-0.267165 -0.0296,-0.105834 -0.0444,-0.224301 -0.0444,-0.355534 0,-0.12912 0.0158,-0.245102 0.0475,-0.348816 0.0318,-0.10372 0.0762,-0.191585 0.13332,-0.263549 0.0572,-0.07405 0.12628,-0.130334 0.20671,-0.168466 0.0804,-0.0402 0.17027,-0.06046 0.26975,-0.06046 0.0889,0 0.16589,0.01826 0.23151,0.05426 0.0677,0.03387 0.12945,0.08026 0.18449,0.139525 l 0.14883,-0.168466 c -0.0614,-0.06773 -0.13937,-0.126965 -0.23462,-0.177765 -0.0953,-0.05293 -0.20631,-0.07907 -0.33331,-0.07907 z m 3.82509,0 c -0.13124,0 -0.25219,0.02421 -0.36226,0.07286 -0.10794,0.04869 -0.20073,0.119774 -0.27905,0.212908 -0.0783,0.09101 -0.14002,0.203059 -0.18448,0.336412 -0.0423,0.131233 -0.0631,0.280305 -0.0631,0.447519 0,0.167219 0.0207,0.31877 0.0631,0.454237 0.0444,0.133344 0.10617,0.247361 0.18448,0.342614 0.0783,0.09313 0.17111,0.165206 0.27905,0.216006 0.11007,0.0508 0.23102,0.07648 0.36226,0.07648 0.13123,0 0.25068,-0.02569 0.35863,-0.07648 0.11007,-0.0508 0.20436,-0.122873 0.28267,-0.216006 0.0804,-0.09525 0.14164,-0.20927 0.18397,-0.342614 0.0445,-0.135467 0.0667,-0.287018 0.0667,-0.454237 0,-0.1651 -0.0222,-0.313185 -0.0667,-0.444418 -0.0423,-0.133347 -0.10354,-0.245393 -0.18397,-0.336413 -0.0783,-0.09315 -0.1726,-0.16424 -0.28267,-0.212907 -0.10795,-0.0508 -0.2274,-0.07597 -0.35863,-0.07597 z m 3.57187,0 c -0.13123,0 -0.25218,0.02421 -0.36225,0.07286 -0.10795,0.04869 -0.20074,0.119774 -0.27905,0.212908 -0.0783,0.09101 -0.14002,0.203059 -0.18449,0.336412 -0.0423,0.131233 -0.0631,0.280305 -0.0631,0.447519 0,0.167219 0.0207,0.31877 0.0631,0.454237 0.0444,0.133344 0.10617,0.247361 0.18449,0.342614 0.0783,0.09313 0.1711,0.165206 0.27905,0.216006 0.11007,0.0508 0.23102,0.07648 0.36225,0.07648 0.13123,0 0.25069,-0.02569 0.35864,-0.07648 0.11006,-0.0508 0.20435,-0.122873 0.28267,-0.216006 0.0804,-0.09525 0.14163,-0.20927 0.18397,-0.342614 0.0445,-0.135467 0.0667,-0.287018 0.0667,-0.454237 0,-0.1651 -0.0222,-0.313185 -0.0667,-0.444418 -0.0423,-0.133347 -0.10354,-0.245393 -0.18397,-0.336413 -0.0783,-0.09315 -0.17261,-0.16424 -0.28267,-0.212907 -0.10795,-0.0508 -0.22741,-0.07597 -0.35864,-0.07597 z m 2.17817,0 c -0.1397,0 -0.26754,0.02516 -0.38396,0.07597 -0.11641,0.04868 -0.21811,0.119774 -0.30489,0.212907 -0.0847,0.09313 -0.15132,0.206161 -0.19999,0.339514 -0.0466,0.133347 -0.0698,0.283916 -0.0698,0.451136 0,0.169333 0.0232,0.321352 0.0698,0.456819 0.0466,0.133347 0.11124,0.246898 0.19379,0.340031 0.0826,0.09103 0.18077,0.160624 0.29507,0.209289 0.1143,0.04867 0.24017,0.07338 0.37775,0.07338 0.1397,0 0.26459,-0.0222 0.37466,-0.06666 0.11218,-0.04657 0.20202,-0.10482 0.26975,-0.174664 v -0.876433 h -0.68265 v 0.219107 h 0.44132 v 0.542602 c -0.0423,0.03814 -0.0971,0.06924 -0.16485,0.0925 -0.0656,0.02114 -0.13572,0.03152 -0.20981,0.03152 -0.11218,0 -0.21139,-0.02027 -0.29817,-0.06046 -0.0847,-0.04022 -0.15674,-0.09697 -0.21601,-0.171051 -0.0572,-0.07409 -0.10159,-0.163451 -0.13332,-0.267165 -0.0296,-0.105834 -0.0444,-0.224301 -0.0444,-0.355534 0,-0.12912 0.0158,-0.245102 0.0475,-0.348816 0.0339,-0.10372 0.0808,-0.191585 0.14004,-0.263549 0.0593,-0.07405 0.13083,-0.130334 0.21549,-0.168466 0.0847,-0.0402 0.17994,-0.06046 0.28578,-0.06046 0.10583,0 0.19271,0.01924 0.26044,0.05736 0.0698,0.03602 0.13104,0.08143 0.18397,0.136425 l 0.14935,-0.168466 c -0.0614,-0.06348 -0.14087,-0.121216 -0.23823,-0.174148 -0.0952,-0.05507 -0.2147,-0.08268 -0.35864,-0.08268 z m -33.109096,0.03773 v 2.083077 h 0.5333 c 0.156633,0 0.295346,-0.02318 0.415996,-0.06977 0.12065,-0.04869 0.22234,-0.117806 0.30489,-0.206706 0.08255,-0.09101 0.144735,-0.201091 0.187069,-0.33021 0.04233,-0.131233 0.06356,-0.279318 0.06356,-0.444418 0,-0.332314 -0.08342,-0.587013 -0.250632,-0.764813 -0.167216,-0.1778 -0.411554,-0.267165 -0.733287,-0.267165 z m 1.953369,0 v 2.083077 h 0.263549 v -2.083077 z m 0.837157,0 v 2.083077 h 0.263552 v -0.879533 h 0.377753 l 0.501775,0.879533 h 0.29818 l -0.52659,-0.907957 c 0.14182,-0.03599 0.25485,-0.102619 0.33952,-0.199985 0.0847,-0.09737 0.12712,-0.227695 0.12712,-0.390676 0,-0.107953 -0.0183,-0.199287 -0.0543,-0.273368 -0.036,-0.07405 -0.0868,-0.134268 -0.15244,-0.180866 -0.0635,-0.04654 -0.1405,-0.07912 -0.23151,-0.09819 -0.0889,-0.02114 -0.186143,-0.03204 -0.291976,-0.03204 z m 1.84175,0 v 2.083077 h 1.23196 v -0.225311 h -0.96841 V 13.26811 h 0.79065 v -0.225309 h -0.79065 v -0.653706 h 0.93638 v -0.222726 z m 1.47743,0 v 0.222726 h 0.6289 v 1.860351 h 0.26665 v -1.860351 h 0.62839 v -0.222726 z m 3.92999,0 v 2.083077 h 0.26355 v -0.879533 h 0.37776 l 0.50177,0.879533 h 0.29818 l -0.5271,-0.907957 c 0.14181,-0.03599 0.25536,-0.102619 0.34003,-0.199985 0.0847,-0.09737 0.12712,-0.227695 0.12712,-0.390676 0,-0.107953 -0.0183,-0.199287 -0.0543,-0.273368 -0.036,-0.07405 -0.0868,-0.134268 -0.15245,-0.180866 -0.0635,-0.04654 -0.14049,-0.07912 -0.23151,-0.09819 -0.0889,-0.02114 -0.18613,-0.03204 -0.29197,-0.03204 z m 1.84175,0 v 2.083077 h 0.26355 v -2.083077 z m 1.26556,0 -0.70487,2.083077 h 0.27027 l 0.19998,-0.635103 h 0.75861 l 0.19689,0.635103 h 0.28267 l -0.70486,-2.083077 z m 1.94045,0 v 2.083077 h 0.5333 c 0.15663,0 0.29534,-0.02318 0.41599,-0.06977 0.12065,-0.04869 0.22234,-0.117806 0.30489,-0.206706 0.0825,-0.09101 0.14474,-0.201091 0.18707,-0.33021 0.0423,-0.131233 0.0636,-0.279318 0.0636,-0.444418 0,-0.332314 -0.0834,-0.587013 -0.25063,-0.764813 -0.16722,-0.1778 -0.41156,-0.267165 -0.73329,-0.267165 z m 1.95337,0 v 2.083077 h 1.23196 v -0.225311 h -0.96842 V 13.26811 h 0.79065 v -0.225309 h -0.79065 v -0.653706 h 0.93638 v -0.222726 z m 2.11614,0 v 0.222726 h 0.62891 v 1.860351 h 0.26665 v -1.860351 h 0.62838 v -0.222726 z m 1.89601,0 v 2.083077 h 1.23197 V 14.02413 h -0.96842 v -0.756025 h 0.79065 v -0.225309 h -0.79065 V 12.38909 h 0.93638 v -0.222726 z m 3.48506,0 v 2.083077 h 0.25063 v -1.088823 c 0,-0.110067 -0.004,-0.219165 -0.0124,-0.327113 -0.006,-0.110066 -0.0138,-0.218178 -0.0222,-0.324011 h 0.0124 l 0.22583,0.428397 0.75551,1.31155 h 0.27285 v -2.083077 h -0.25063 v 1.07642 c 0,0.110067 0.003,0.222631 0.009,0.336931 0.008,0.112186 0.0159,0.22076 0.0222,0.326594 h -0.0124 l -0.22531,-0.431499 -0.75293,-1.308446 z m 4.16099,0 v 2.083077 h 1.1746 v -0.225311 h -0.91105 v -1.857766 z m 5.53144,0 v 2.083077 h 0.26355 v -2.083077 z m 1.26607,0 -0.70486,2.083077 h 0.26975 l 0.19999,-0.635103 h 0.75861 l 0.19688,0.635103 h 0.28268 l -0.70487,-2.083077 z m -26.79681,0.193786 c 0.0931,0 0.17655,0.02027 0.25063,0.06046 0.0762,0.0381 0.14088,0.0934 0.19379,0.165365 0.055,0.07197 0.0975,0.159319 0.12712,0.263033 0.0296,0.103719 0.0444,0.220218 0.0444,0.349332 0,0.131233 -0.0148,0.2497 -0.0444,0.355534 -0.0296,0.103719 -0.0721,0.194066 -0.12712,0.270266 -0.0529,0.0741 -0.11759,0.13085 -0.19379,0.171051 -0.0741,0.0402 -0.15749,0.06046 -0.25063,0.06046 -0.0931,0 -0.17805,-0.02027 -0.25425,-0.06046 -0.0741,-0.04022 -0.13823,-0.09697 -0.19327,-0.171051 -0.0529,-0.0762 -0.0944,-0.166547 -0.12402,-0.270266 -0.0296,-0.105834 -0.0444,-0.224301 -0.0444,-0.355534 0,-0.129114 0.0148,-0.245613 0.0444,-0.349332 0.0296,-0.103714 0.0711,-0.191066 0.12402,-0.263033 0.055,-0.07193 0.11919,-0.127233 0.19327,-0.165365 0.0762,-0.0402 0.16112,-0.06046 0.25425,-0.06046 z m 18.65933,0 c 0.0931,0 0.17654,0.02027 0.25063,0.06046 0.0762,0.0381 0.14085,0.0934 0.19378,0.165365 0.0551,0.07197 0.0975,0.159319 0.12713,0.263033 0.0296,0.103719 0.0444,0.220218 0.0444,0.349332 0,0.131233 -0.0148,0.2497 -0.0444,0.355534 -0.0296,0.103719 -0.0721,0.194066 -0.12713,0.270266 -0.0529,0.0741 -0.11758,0.13085 -0.19378,0.171051 -0.0741,0.0402 -0.1575,0.06046 -0.25063,0.06046 -0.0931,0 -0.17805,-0.02027 -0.25425,-0.06046 -0.0741,-0.04022 -0.13827,-0.09697 -0.19327,-0.171051 -0.0529,-0.0762 -0.0944,-0.166547 -0.12402,-0.270266 -0.0296,-0.105834 -0.0444,-0.224301 -0.0444,-0.355534 0,-0.129114 0.0148,-0.245613 0.0444,-0.349332 0.0296,-0.103714 0.0711,-0.191066 0.12402,-0.263033 0.055,-0.07193 0.11919,-0.127233 0.19327,-0.165365 0.0762,-0.0402 0.16111,-0.06046 0.25425,-0.06046 z m 3.57187,0 c 0.0931,0 0.17655,0.02027 0.25063,0.06046 0.0762,0.0381 0.14086,0.0934 0.19379,0.165365 0.0551,0.07197 0.0975,0.159319 0.12712,0.263033 0.0296,0.103719 0.0444,0.220218 0.0444,0.349332 0,0.131233 -0.0148,0.2497 -0.0444,0.355534 -0.0297,0.103719 -0.0721,0.194066 -0.12712,0.270266 -0.0529,0.0741 -0.11759,0.13085 -0.19379,0.171051 -0.0741,0.0402 -0.1575,0.06046 -0.25063,0.06046 -0.0931,0 -0.17804,-0.02027 -0.25424,-0.06046 -0.0741,-0.04022 -0.13828,-0.09697 -0.19327,-0.171051 -0.053,-0.0762 -0.0944,-0.166547 -0.12403,-0.270266 -0.0296,-0.105834 -0.0444,-0.224301 -0.0444,-0.355534 0,-0.129114 0.0148,-0.245613 0.0444,-0.349332 0.0296,-0.103714 0.0711,-0.191066 0.12403,-0.263033 0.055,-0.07193 0.11918,-0.127233 0.19327,-0.165365 0.0762,-0.0402 0.16111,-0.06046 0.25424,-0.06046 z m -27.876848,0.01913 h 0.349332 c 0.162983,0 0.287866,0.02768 0.374656,0.08268 0.0868,0.05503 0.13022,0.151284 0.13022,0.28887 0,0.135467 -0.0434,0.237159 -0.13022,0.304893 -0.0868,0.0656 -0.211673,0.09818 -0.374656,0.09818 h -0.349332 z m 7.249168,0 h 0.34933 c 0.16299,0 0.28787,0.02768 0.37466,0.08268 0.0868,0.05503 0.13022,0.151284 0.13022,0.28887 0,0.135467 -0.0434,0.237159 -0.13022,0.304893 -0.0868,0.0656 -0.21167,0.09818 -0.37466,0.09818 h -0.34933 z m -10.039697,0.0031 h 0.238228 c 0.243417,0 0.425569,0.07011 0.546222,0.209806 0.122764,0.1397 0.183968,0.341585 0.183968,0.606166 0,0.264586 -0.0612,0.469937 -0.183968,0.615982 -0.120653,0.146055 -0.302805,0.219109 -0.546222,0.219109 h -0.238228 z m 13.020397,0 h 0.0124 c 0.0339,0.120647 0.0679,0.239114 0.1018,0.355536 0.0339,0.1143 0.0699,0.229817 0.108,0.346231 l 0.0982,0.317294 h -0.62528 l 0.0982,-0.317294 c 0.0381,-0.116414 0.0741,-0.231933 0.108,-0.346231 0.0339,-0.116422 0.067,-0.234889 0.0987,-0.355536 z m 2.06706,0 h 0.23822 c 0.24342,0 0.42557,0.07011 0.54622,0.209806 0.12277,0.1397 0.18397,0.341585 0.18397,0.606166 0,0.264586 -0.0612,0.469937 -0.18397,0.615982 -0.12065,0.146055 -0.3028,0.219109 -0.54622,0.219109 h -0.23822 z m 20.28196,0 h 0.0124 c 0.0339,0.120647 0.0679,0.239114 0.10181,0.355536 0.0338,0.1143 0.0699,0.229817 0.108,0.346231 l 0.0982,0.317294 h -0.62529 l 0.0982,-0.317294 c 0.0381,-0.116414 0.0741,-0.231933 0.10801,-0.346231 0.0339,-0.116422 0.067,-0.234889 0.0987,-0.355536 z"
     style="font-style:normal;font-variant:normal;font-weight:normal;font-stretch:normal;font-size:3.17499995px;line-height:1.10000002;font-family:'Source Sans Pro';-inkscape-font-specification:'Source Sans Pro, Normal';font-variant-ligatures:normal;font-variant-position:normal;font-variant-caps:normal;font-variant-numeric:normal;font-variant-alternates:normal;font-feature-settings:normal;text-indent:0;text-align:start;text-decoration:none;text-decoration-line:none;text-decoration-style:solid;text-decoration-color:#000000;letter-spacing:0px;word-spacing:0px;text-transform:none;writing-mode:lr-tb;direction:ltr;text-orientation:mixed;dominant-baseline:auto;baseline-shift:baseline;text-anchor:start;white-space:normal;shape-padding:0;fill:#5bcef1;fill-opacity:1;stroke:none;stroke-width:0.26458332;stroke-linecap:butt;stroke-linejoin:miter;stroke-miterlimit:4;stroke-dasharray:none;stroke-dashoffset:0;stroke-opacity:1" />
</svg>
