<?xml version="1.0" encoding="UTF-8" standalone="no"?>
<svg
   xmlns="http://www.w3.org/2000/svg"
   width="60"
   height="81.369659"
   viewBox="0 0 15.875 21.529056"
   version="1.1"
   id="svg469">
  <g
     id="g68"
     transform="translate(-107.95,-72.368729)">
    <rect
       ry="1.0583333"
       rx="1.0583333"
       y="72.368729"
       x="107.95"
       height="15.875"
       width="15.875"
       id="rect10"
       style="opacity:1;vector-effect:none;fill:#13acda;fill-opacity:1;stroke:none;stroke-width:0.79374999;stroke-linecap:butt;stroke-linejoin:round;stroke-miterlimit:4;stroke-dasharray:2.38124997, 2.38124997;stroke-dashoffset:0;stroke-opacity:1" />
    <path
       id="path57"
       d="m 111.73684,75.014566 v 1.641242 h 3.06596 c 1.98864,0 3.65043,1.331333 3.65043,3.650425 0,2.319091 -1.71168,3.650305 -3.65043,3.650424 h -3.06596 v 1.641242 h 3.06596 c 2.9225,-5e-6 5.29167,-2.369163 5.29167,-5.291666 0,-2.922506 -2.36916,-5.291662 -5.29167,-5.291667 z m 0,2.322338 v 0.952397 h 2.06137 v -0.952397 z m 0,1.65468 v 0.952397 h 2.06137 v -0.952397 z m 0,1.654162 v 0.952397 h 2.06137 v -0.952397 z m 0,1.65468 v 0.952397 h 2.06137 v -0.952397 z"
       style="opacity:1;vector-effect:none;fill:#ffffff;fill-opacity:1;stroke:none;stroke-width:0.79374999;stroke-linecap:butt;stroke-linejoin:round;stroke-miterlimit:4;stroke-dasharray:2.38124984, 2.38124984;stroke-dashoffset:0;stroke-opacity:1" />
  </g>
  <path
     style="shape-padding:0;fill:#ffffff;fill-opacity:1;stroke:none;stroke-width:0.26458332;stroke-linecap:butt;stroke-linejoin:miter;stroke-miterlimit:4;stroke-dasharray:none;stroke-dashoffset:0;stroke-opacity:1"
     d="m 14.734952,17.358554 c -0.286436,0 -0.551953,0.04964 -0.796381,0.148937 -0.24061,0.09929 -0.44863,0.2406 -0.624312,0.423921 -0.171863,0.183319 -0.307629,0.402889 -0.406928,0.658772 -0.09929,0.255887 -0.148933,0.540331 -0.148933,0.853502 0,0.31317 0.04779,0.597617 0.143269,0.853504 0.09929,0.255882 0.236906,0.475688 0.412592,0.659008 0.175682,0.183323 0.383702,0.324621 0.624312,0.42392 0.244428,0.09929 0.509945,0.148937 0.796381,0.148937 0.435388,0 0.815422,-0.07826 1.140048,-0.234854 L 15.79475,20.5953 c -0.378098,0.152768 -0.731349,0.228955 -1.059796,0.228955 -0.190956,0 -0.359042,-0.03232 -0.504172,-0.09725 -0.145129,-0.06874 -0.267261,-0.162488 -0.36656,-0.280882 -0.09929,-0.122213 -0.175722,-0.267201 -0.22919,-0.435248 -0.04965,-0.171862 -0.07459,-0.360958 -0.07459,-0.567193 0,-0.206237 0.02494,-0.393247 0.07459,-0.56129 0.05347,-0.171862 0.129892,-0.317088 0.22919,-0.435485 0.09929,-0.122212 0.221431,-0.21572 0.36656,-0.280646 0.14513,-0.06874 0.313216,-0.103147 0.504172,-0.103147 0.328447,0 0.681698,0.07642 1.059796,0.22919 L 15.875,17.593405 C 15.550374,17.436821 15.17034,17.358552 14.734952,17.358552 Z M 0,17.43857 v 4.010232 h 1.5009473 c 0.2902544,0 0.5557708,-0.04595 0.7963805,-0.137607 0.244428,-0.09549 0.4524482,-0.229163 0.6243115,-0.401024 0.1756819,-0.171864 0.3114479,-0.38173 0.4069235,-0.629977 0.099299,-0.248247 0.1489388,-0.527156 0.1489388,-0.836508 0,-0.309354 -0.04964,-0.586177 -0.1489388,-0.830606 C 3.2330872,18.364834 3.0973212,18.154729 2.9216393,17.982867 2.749776,17.807182 2.5417558,17.673502 2.2973278,17.581844 2.0567181,17.486363 1.7912017,17.43857 1.5009473,17.43857 Z m 4.3491782,0 v 4.010232 H 5.0823026 V 17.43857 Z m 1.476398,0 v 0.710465 h 1.1341511 v 3.299767 H 7.6930846 V 18.149035 H 8.8274687 V 17.43857 Z m 3.7531913,0 v 4.010232 h 2.6237675 v -0.710464 h -1.873409 v -1.025336 h 1.409363 v -0.710464 h -1.409363 v -0.853503 h 1.816049 V 17.43857 Z m -8.8454069,0.7048 h 0.7675867 c 0.381916,0 0.6721339,0.114516 0.8707311,0.343666 0.2024158,0.225334 0.303779,0.544179 0.303779,0.95665 0,0.412469 -0.1013632,0.7334 -0.303779,0.96255 C 2.1730812,20.63157 1.8828633,20.74424 1.5009473,20.74424 H 0.7333606 Z"
     id="path505" />
</svg>
