<svg id="Layer_1" data-name="Layer 1" xmlns="http://www.w3.org/2000/svg" xmlns:xlink="http://www.w3.org/1999/xlink"
     viewBox="0 0 1641.83 1641.82">
  <defs>
    <style>.cls-1 {fill: none;}
    .cls-2 {clip-path: url(#clip-path);}
    .cls-3 {fill: #cdcccc;}
    .cls-4 {fill: #ffffff;}</style>
    <clipPath id="clip-path" transform="translate(-50.6 -17.84)">
      <rect class="cls-1" x="50.57" y="-3.88" width="1663.61" height="1700.79"/>
    </clipPath>
  </defs>
  <g class="cls-2">
    <path class="cls-3"
          d="M627.22,1305.1,382.28,1438.66a224.63,224.63,0,0,0-39.3,28c142.78,120.4,327.18,193,528.51,193A817.5,817.5,0,0,0,1397,1469.37a217.46,217.46,0,0,0-43.14-28.89L1091.6,1309.36a100.17,100.17,0,0,1-55.37-89.57V1116.93a362.37,362.37,0,0,0,24.82-31.91c35.86-50.54,62.77-106.07,81.52-164.31,33.73-10.42,58.55-41.44,58.55-78.34V732.55a81.78,81.78,0,0,0-27.53-61V512.75s32.68-247-302.09-247c-334.58,0-301.94,247-301.94,247V671.6a81.92,81.92,0,0,0-27.53,61V842.38c0,28.89,15.3,54.29,38,69.12,27.53,119.5,99.37,205.43,99.37,205.43v100.45a100.25,100.25,0,0,1-52.16,87.71Zm0,0"
          transform="translate(-50.6 -17.84)"/>
    <path class="cls-4"
          d="M885.55,18C432.2,10.26,58.43,371.48,50.72,824.68c-4.38,257.17,110.13,488.13,292.56,641.67a234.05,234.05,0,0,1,38.84-27.69L627.22,1305.1a100,100,0,0,0,52-87.87v-100.3S607.39,1030.85,580,911.35a81.94,81.94,0,0,1-38-69v-110c0-24,10.77-45.69,27.38-60.8V512.75S536.91,265.57,871.49,265.57s302.09,247.18,302.09,247.18V671.6A82.11,82.11,0,0,1,1201,732.4v110c0,36.9-24.82,67.92-58.4,78.34A605.82,605.82,0,0,1,1061.05,1085c-9.1,12.7-17.39,23.43-24.82,31.91v102.85a100,100,0,0,0,55.22,89.57l262.44,131.12a214.1,214.1,0,0,1,43,28.77c177-147.5,291.17-368,295.43-616.42C1700.16,399.48,1338.94,25.67,885.55,18Zm0,0"
          transform="translate(-50.6 -17.84)"/>
  </g>
</svg>
